<svg width="16" height="16" viewBox="0 0 16 16" fill="none" xmlns="http://www.w3.org/2000/svg">
<path fill-rule="evenodd" clip-rule="evenodd" d="M6 5.5C6 4.25736 6.7574 3.5 8 3.5C9.2426 3.5 10 4.25736 10 5.5V7H6V5.5ZM4.5 7V5.5C4.5 3.42893 5.92893 2 8 2C10.0711 2 11.5 3.42893 11.5 5.5V7H12.25L13 7.75V13.25L12.25 14H3.75L3 13.25V7.75L3.75 7H4.5ZM4.5 12.5V8.5H11.5V12.5H4.5Z" fill="currentColor"/>
<path d="M9 10.5C9 11.0523 8.55228 11.5 8 11.5C7.44772 11.5 7 11.0523 7 10.5C7 9.94772 7.44772 9.5 8 9.5C8.55228 9.5 9 9.94772 9 10.5Z" fill="currentColor"/>
</svg>
