<svg width="100" height="80" viewBox="0 0 100 80" fill="none" xmlns="http://www.w3.org/2000/svg">
  <!-- https://www.svgrepo.com/svg/334870/quote-right -->
  <path d="M90.545 68.54C99.98 58.3 99.03 45.15 99 45V5C99 3.67392 98.4732 2.40215 97.5355 1.46447C96.5979 0.526787 95.3261 1.90735e-06 94 1.90735e-06H64C58.485 1.90735e-06 54 4.485 54 10V45C54 46.3261 54.5268 47.5979 55.4645 48.5355C56.4021 49.4732 57.6739 50 59 50H74.39C74.2844 52.4719 73.5458 54.8753 72.245 56.98C69.705 60.985 64.92 63.72 58.015 65.1L54 65.9V80H59C72.915 80 83.53 76.145 90.545 68.54ZM37.51 68.54C46.95 58.3 45.995 45.15 45.965 45V5C45.965 3.67392 45.4382 2.40215 44.5005 1.46447C43.5629 0.526787 42.2911 1.90735e-06 40.965 1.90735e-06H10.965C5.45 1.90735e-06 0.965002 4.485 0.965002 10V45C0.965002 46.3261 1.49179 47.5979 2.42947 48.5355C3.36715 49.4732 4.63892 50 5.965 50H21.355C21.2494 52.4719 20.5108 54.8753 19.21 56.98C16.67 60.985 11.885 63.72 4.98 65.1L0.965002 65.9V80H5.965C19.88 80 30.495 76.145 37.51 68.54Z" fill="currentColor"/>
</svg>