<svg width="1024" height="1024" viewBox="0 0 1024 1024" fill="none" xmlns="http://www.w3.org/2000/svg">
<rect width="1024" height="1024" rx="512" fill="#070707"/>
<path d="M780.577 486.42L537.893 243.736C523.675 229.518 500.628 229.529 486.42 243.736L243.736 486.42C229.518 500.638 229.529 523.685 243.736 537.893L486.42 780.577C500.638 794.795 523.685 794.784 537.893 780.577L780.577 537.893C794.795 523.675 794.784 500.628 780.577 486.42ZM299.548 545.596C281.087 527.135 281.087 497.199 299.548 478.738C318.009 460.277 347.946 460.277 366.407 478.738C384.868 497.199 384.868 527.135 366.407 545.596C347.946 564.058 318.009 564.058 299.548 545.596ZM478.727 366.418C460.266 347.956 460.266 318.02 478.727 299.559C497.188 281.098 527.125 281.098 545.586 299.559C564.047 318.02 564.047 347.956 545.586 366.418C527.125 384.879 497.188 384.879 478.727 366.418ZM478.727 545.586C460.266 527.125 460.266 497.188 478.727 478.727C497.188 460.266 527.125 460.266 545.586 478.727C564.047 497.188 564.047 527.125 545.586 545.586C527.125 564.047 497.188 564.047 478.727 545.586ZM478.716 724.765C460.255 706.303 460.255 676.367 478.716 657.906C497.178 639.445 527.114 639.445 545.575 657.906C564.036 676.367 564.036 706.303 545.575 724.765C527.114 743.226 497.178 743.226 478.716 724.765ZM657.895 545.586C639.434 527.125 639.434 497.188 657.895 478.727C676.356 460.266 706.293 460.266 724.754 478.727C743.215 497.188 743.215 527.125 724.754 545.586C706.293 564.047 676.356 564.047 657.895 545.586Z" fill="white"/>
</svg>
